<svg data-v-fde0c5aa="" xmlns="http://www.w3.org/2000/svg" viewBox="0 0 300 300" class="iconLeft"><!----><defs data-v-fde0c5aa=""><!----></defs><rect data-v-fde0c5aa="" fill="transparent" x="0" y="0" width="300px" height="300px" class="logo-background-square"></rect><defs data-v-fde0c5aa=""><!----></defs><g data-v-fde0c5aa="" id="2289d557-ccbd-423c-b726-d422ee84aff9" fill="#000000" transform="matrix(2.540490451145314,0,0,2.540490451145314,91.13360206248744,127.65638628835292)"><path d="M5.61 13.96C6.41 13.96 6.90 13.78 7.57 13.54L7.20 12.35C6.72 12.56 6.36 12.64 6.01 12.64C5.31 12.64 4.77 12.26 4.77 11.30L4.77 3.63L1.01 3.63L1.01 4.90L3.18 4.90L3.18 11.20C3.18 12.95 4.02 13.96 5.61 13.96ZM12.60 13.96C14.42 13.96 16.06 12.59 16.06 10.21C16.06 7.83 14.42 6.45 12.60 6.45C10.79 6.45 9.16 7.83 9.16 10.21C9.16 12.59 10.79 13.96 12.60 13.96ZM12.60 12.64C11.48 12.64 10.81 11.68 10.81 10.21C10.81 8.75 11.48 7.77 12.60 7.77C13.73 7.77 14.41 8.75 14.41 10.21C14.41 11.68 13.73 12.64 12.60 12.64ZM21.63 13.96C22.61 13.96 23.62 13.57 24.42 12.87L23.74 11.84C23.21 12.28 22.55 12.64 21.77 12.64C20.41 12.64 19.49 11.68 19.49 10.21C19.49 8.75 20.44 7.77 21.81 7.77C22.43 7.77 22.97 8.01 23.52 8.48L24.28 7.48C23.70 6.90 22.83 6.45 21.74 6.45C19.64 6.45 17.84 7.83 17.84 10.21C17.84 12.59 19.47 13.96 21.63 13.96ZM29.40 13.96C31.22 13.96 32.86 12.59 32.86 10.21C32.86 7.83 31.22 6.45 29.40 6.45C27.59 6.45 25.96 7.83 25.96 10.21C25.96 12.59 27.59 13.96 29.40 13.96ZM29.40 12.64C28.28 12.64 27.61 11.68 27.61 10.21C27.61 8.75 28.28 7.77 29.40 7.77C30.53 7.77 31.21 8.75 31.21 10.21C31.21 11.68 30.53 12.64 29.40 12.64ZM34.27 13.78L35.80 13.78L35.80 8.75C36.06 8.15 36.30 7.83 36.68 7.83C37.06 7.83 37.27 8.16 37.27 8.83L37.27 13.78L38.51 13.78L38.51 8.75C38.78 8.15 39.05 7.83 39.42 7.83C39.82 7.83 39.98 8.16 39.98 8.83L39.98 13.78L41.51 13.78L41.51 8.71C41.51 7.28 40.95 6.45 40.00 6.45C39.23 6.45 38.75 6.96 38.43 7.66C38.26 6.86 37.83 6.45 37.17 6.45C36.39 6.45 35.97 6.92 35.67 7.56L35.62 7.56L35.49 6.64L34.27 6.64ZM45.29 13.96C46.23 13.96 47.14 13.45 47.87 12.88L47.92 12.88L48.05 13.78L49.35 13.78L49.35 9.52C49.35 7.56 48.31 6.45 46.41 6.45C45.22 6.45 44.16 6.94 43.55 7.46L44.14 8.53C44.63 8.12 45.33 7.76 46.10 7.76C47.24 7.76 47.70 8.39 47.75 9.21C44.35 9.48 42.99 10.26 42.99 11.87C42.99 13.10 43.96 13.96 45.29 13.96ZM45.78 12.68C45.09 12.68 44.55 12.40 44.55 11.75C44.55 10.95 45.28 10.40 47.75 10.22L47.75 11.79C47.12 12.35 46.47 12.68 45.78 12.68ZM52.23 13.78L53.84 13.78L53.84 9.79C54.54 8.40 55.47 7.88 56.41 7.88C56.94 7.88 57.20 7.95 57.65 8.11L58.00 6.75C57.58 6.55 57.22 6.45 56.66 6.45C55.47 6.45 54.43 7.11 53.73 8.27L53.69 8.27L53.55 6.64L52.23 6.64ZM64.27 13.96C65.09 13.96 65.86 13.75 66.47 13.54L66.16 12.38C65.73 12.54 65.24 12.67 64.65 12.67C63.49 12.67 63.07 12.11 63.07 10.92L63.07 7.91L66.21 7.91L66.21 6.64L63.07 6.64L63.07 3.77L61.53 4.54L61.53 6.64L59.63 6.64L59.63 7.91L61.46 7.91L61.46 10.92C61.46 12.73 62.17 13.96 64.27 13.96Z"></path></g><defs data-v-fde0c5aa=""><linearGradient data-v-fde0c5aa="" gradientTransform="rotate(25)" id="1f2bdc1c-5b48-4be8-bec6-96cb6c17ddbd" x1="0%" y1="0%" x2="100%" y2="0%"><stop data-v-fde0c5aa="" offset="0%" stop-color="#2F8632" stop-opacity="1"></stop><stop data-v-fde0c5aa="" offset="100%" stop-color="#BEFF7F" stop-opacity="1"></stop></linearGradient></defs><g data-v-fde0c5aa="" id="3530a6a4-2878-471b-b81a-85c6e081b201" stroke="none" fill="url(#1f2bdc1c-5b48-4be8-bec6-96cb6c17ddbd)" transform="matrix(0.41655978042074693,0,0,0.41655978042074693,39.51220844588046,129.5365008364886)"><path d="M92.812 49.125a6.058 6.058 0 00-5.383 3.281l-27.775-4.741a10.628 10.628 0 00-.43-1.82l22.734-11.268c1.703 1.74 4.389 2.262 6.658 1.072a5.663 5.663 0 10-5.262-10.03c-2.172 1.143-3.273 3.49-2.957 5.785l-22.842 11.32a10.669 10.669 0 00-1.673-1.732l18.902-26.375c.938.109 1.906.016 2.84-.373a5.662 5.662 0 10-7.405-3.044c.317.76.788 1.403 1.353 1.935l-18.795 26.1a10.61 10.61 0 00-1.633-.45l-1.179-19.699A5.5 5.5 0 1042.375 14a5.499 5.499 0 004.066 5.305l1.161 19.416c-.691.103-1.359.267-1.999.496L24.944 12.771A6.838 6.838 0 0026.25 8.75a6.875 6.875 0 10-6.875 6.875 6.844 6.844 0 002.827-.613l20.281 25.947a10.724 10.724 0 00-2.647 3.174l-18.602-6.435c.005-.1.03-.194.03-.297a5.841 5.841 0 00-5.84-5.84 5.84 5.84 0 000 11.681c1.855 0 3.489-.882 4.558-2.229l18.715 6.473a10.775 10.775 0 00-.152 1.726c0 .078.01.153.011.231L11.63 58.19c-1-1.605-2.767-2.682-4.797-2.682a5.662 5.662 0 000 11.324c2.967 0 5.374-2.291 5.617-5.195l26.773-8.72a10.573 10.573 0 002.546 3.905L30.218 73.656a4.944 4.944 0 00-6.001 3.321 4.956 4.956 0 009.474 2.908c.449-1.464.167-2.963-.607-4.151l11.601-16.906c1.362.635 2.875 1 4.477 1 .207 0 .405-.019.609-.029l2.371 23.204a6.873 6.873 0 002.233 13.372 6.873 6.873 0 001.262-13.629L53.346 58.97a10.617 10.617 0 003.637-2.597l16.47 17.112a5.466 5.466 0 00-.827 2.89 5.5 5.5 0 105.5-5.5c-.615 0-1.205.105-1.758.292-.045-.029-.123-.015-.268.09L58.917 53.404c.301-.699.524-1.437.671-2.203l27.199 4.647a6.062 6.062 0 106.025-6.723z"></path></g><!----></svg>